<?xml version="1.0" standalone="no"?>
<!DOCTYPE svg PUBLIC "-//W3C//DTD SVG 20010904//EN"
 "http://www.w3.org/TR/2001/REC-SVG-20010904/DTD/svg10.dtd">
<svg version="1.0" xmlns="http://www.w3.org/2000/svg"
 width="703.000000pt" height="703.000000pt" viewBox="0 0 703.000000 703.000000"
 preserveAspectRatio="xMidYMid meet">
<metadata>
Created by potrace 1.14, written by Peter Selinger 2001-2017
</metadata>
<g transform="translate(0.000000,703.000000) scale(0.100000,-0.100000)"
fill="#000000" stroke="none">
<path d="M385 6811 c-86 -21 -188 -72 -229 -114 -41 -41 -100 -117 -91 -117 3
0 -1 -12 -10 -27 -8 -16 -24 -62 -35 -103 -18 -73 -19 -140 -16 -2950 1 -1581
5 -2885 7 -2897 3 -13 8 -26 12 -29 4 -4 7 -16 7 -26 0 -30 69 -151 112 -195
46 -47 114 -86 202 -117 l61 -21 2330 -2 2330 -3 -35 22 c-19 13 -46 33 -60
45 -14 13 -28 23 -32 23 -18 0 -151 152 -201 230 l-35 55 -2078 1 c-1528 1
-2090 4 -2119 13 -63 18 -105 64 -120 131 -4 19 -8 1281 -8 2805 1 2614 2
2773 18 2806 24 48 54 78 95 96 31 13 375 15 2816 15 1530 0 2793 -3 2805 -7
37 -11 87 -53 106 -88 10 -19 18 -59 19 -99 1 -37 5 -71 8 -77 4 -5 3 -12 -1
-14 -9 -6 -9 -200 0 -214 4 -6 3 -13 0 -17 -6 -6 -8 -76 -3 -101 1 -5 2 -12 1
-15 -5 -14 -3 -179 2 -187 4 -6 3 -13 0 -17 -6 -6 -8 -76 -3 -101 1 -5 2 -13
1 -17 -5 -20 -3 -107 3 -116 3 -6 3 -13 -1 -15 -5 -3 -7 -45 -5 -94 3 -99 3
-97 1 -175 0 -31 2 -61 6 -67 3 -6 3 -11 -2 -11 -9 0 -8 -103 1 -118 3 -6 3
-13 -1 -15 -9 -6 -9 -200 0 -214 4 -6 3 -13 0 -17 -6 -6 -8 -76 -3 -101 1 -5
2 -13 1 -17 -2 -8 -3 -99 -2 -135 1 -13 7 -11 31 12 45 43 143 61 235 41 11
-3 26 -5 33 -5 7 -1 27 -16 46 -35 l33 -35 0 974 c0 875 -3 1021 -21 1104 -28
128 -116 250 -216 298 -78 38 -116 52 -156 60 -21 4 -1328 8 -2904 9 -2667 2
-2870 1 -2935 -15z"/>
<path d="M2046 6073 c-1 -1 -31 -4 -66 -7 -64 -5 -102 -11 -150 -22 -14 -3
-34 -8 -44 -10 -91 -18 -384 -148 -394 -176 -2 -4 -9 -8 -15 -8 -7 0 -24 -11
-38 -23 -13 -13 -30 -26 -36 -28 -24 -8 -162 -140 -215 -206 -107 -132 -198
-288 -243 -418 -9 -27 -20 -57 -23 -65 -9 -25 -37 -145 -46 -195 -29 -159 -22
-424 15 -580 5 -22 12 -49 14 -60 28 -121 122 -331 203 -453 l48 -72 0 -1367
c-1 -959 2 -1370 10 -1377 7 -7 98 -11 270 -10 l259 0 3 40 c3 53 3 62 0 112
-2 23 1 42 5 42 5 0 5 5 2 10 -6 9 -7 42 -5 130 1 8 -1 34 -2 58 -2 23 1 42 5
42 5 0 5 5 2 11 -9 14 -10 203 -1 217 4 7 3 12 -1 12 -10 0 -9 53 2 69 3 6 2
11 -2 11 -10 0 -9 53 2 69 3 6 2 11 -2 11 -5 0 -7 15 -5 32 4 38 4 51 0 93 -2
17 0 42 4 58 3 15 4 27 0 27 -4 0 -7 16 -7 35 0 19 3 35 7 35 4 0 3 13 -2 29
-4 15 -5 33 -1 38 4 6 234 10 633 10 565 0 627 -2 630 -16 2 -9 3 -276 3 -593
0 -571 0 -578 20 -579 88 -5 499 -3 508 3 8 5 11 130 12 430 l0 423 455 1
c250 1 478 4 507 7 370 40 655 225 742 483 11 33 23 73 26 90 11 50 14 227 5
274 -4 25 -11 61 -14 80 -5 34 -20 76 -53 150 -21 46 -92 146 -138 192 -63 64
-172 129 -280 168 l-29 11 61 34 c161 92 264 237 324 460 20 72 17 273 -5 355
-26 99 -107 257 -165 322 -74 81 -190 162 -266 183 -16 5 -32 9 -35 10 -55 15
-266 19 -1168 20 l-1072 0 2 -200 3 -200 278 1 277 0 1 -30 c1 -17 1 -62 1
-101 l-1 -69 -78 -76 c-43 -41 -92 -87 -109 -101 -30 -25 -179 -119 -189 -119
-3 0 -24 -9 -48 -19 -92 -42 -187 -62 -301 -62 -224 0 -389 67 -550 226 -96
94 -109 110 -149 184 -16 31 -33 61 -37 66 -11 15 -59 152 -65 183 -3 15 -7
38 -10 52 -29 138 -25 354 10 495 22 86 22 87 33 115 94 242 281 438 488 511
74 26 83 28 169 35 39 3 72 7 74 10 2 2 12 -1 22 -7 13 -7 19 -6 19 1 0 6 3 9
8 7 4 -3 31 -8 60 -12 124 -15 243 -61 352 -133 67 -44 166 -144 200 -201 57
-96 45 -95 156 -11 55 41 107 79 116 85 54 32 177 132 178 144 0 24 -106 173
-172 241 -96 99 -180 161 -315 231 -63 33 -199 83 -258 95 -11 2 -43 8 -71 14
-28 6 -80 13 -115 15 -35 2 -64 5 -64 5 0 3 -166 5 -169 3z m2244 -1876 c146
-65 221 -236 186 -421 -10 -52 -59 -140 -100 -180 -44 -41 -102 -71 -163 -82
-49 -10 -763 -12 -783 -3 -13 6 -15 53 -14 351 1 188 2 348 3 353 1 7 143 10
408 9 l408 -2 55 -25z m-1428 -1074 c0 -241 -1 -444 -1 -450 -1 -10 -134 -13
-631 -13 -593 0 -630 1 -631 18 -3 43 1 103 6 112 3 6 3 10 -2 10 -7 0 -8 112
-3 220 0 14 0 44 -2 68 -2 23 0 42 4 42 4 0 5 6 2 14 -8 21 -10 106 -2 106 4
0 3 13 -2 29 -11 38 1 57 27 42 11 -5 23 -7 27 -4 3 3 6 1 6 -5 0 -7 8 -12 18
-12 9 0 36 -7 59 -15 23 -8 57 -17 75 -20 18 -3 60 -10 93 -16 91 -16 356 -12
386 7 3 2 20 6 39 9 142 25 368 150 495 273 17 16 32 28 34 26 2 -2 3 -200 3
-441z m763 -53 c6 -1 15 -1 20 0 22 6 642 1 675 -5 215 -39 337 -322 234 -542
-27 -56 -111 -135 -179 -168 l-60 -29 -443 -1 c-244 0 -446 2 -450 5 -4 3 -8
170 -7 372 0 312 2 368 14 370 16 3 180 1 196 -2z"/>
<path d="M6355 4359 c-70 -26 -119 -108 -113 -189 1 -28 1 -50 -2 -50 -5 0 -5
-194 0 -215 1 -5 2 -14 0 -20 -4 -25 -2 -114 4 -124 4 -5 2 -12 -3 -15 -4 -3
-5 -23 -1 -44 3 -21 3 -47 0 -58 -4 -10 -4 -29 1 -40 4 -12 5 -24 3 -27 -9 -8
-10 -197 -2 -197 4 0 5 -7 1 -16 -9 -25 -10 -97 -1 -116 5 -10 5 -18 1 -18 -4
0 -8 -279 -7 -619 l0 -619 -60 28 c-81 38 -90 41 -177 63 -80 20 -403 21 -492
2 -103 -22 -209 -62 -290 -107 -40 -23 -74 -44 -77 -47 -3 -3 -23 -19 -45 -36
-40 -29 -133 -119 -170 -166 -37 -45 -115 -175 -120 -199 -1 -3 -8 -21 -17
-41 -15 -35 -42 -133 -54 -199 -7 -43 -7 -246 1 -280 3 -14 8 -43 11 -65 13
-111 94 -294 178 -403 45 -60 157 -162 175 -162 6 0 11 -4 11 -8 0 -7 134 -78
195 -103 19 -8 99 -29 170 -45 17 -3 98 -7 180 -9 112 -1 173 3 240 16 95 19
265 78 265 91 0 4 5 8 11 8 16 0 108 63 167 116 90 80 179 219 220 344 57 174
55 102 55 1518 0 716 2 1302 4 1302 2 0 52 -47 110 -105 93 -92 110 -105 149
-111 58 -8 100 17 132 78 41 79 34 92 -148 278 -166 169 -222 241 -235 299 -4
18 -9 72 -10 119 -2 46 -7 87 -12 91 -4 3 -15 20 -25 36 -9 17 -30 38 -47 48
-37 23 -134 31 -176 16z m-506 -2660 c102 -32 213 -110 283 -197 15 -19 50
-79 53 -92 1 -3 7 -18 14 -35 40 -96 48 -288 16 -395 -56 -187 -210 -330 -400
-373 -38 -9 -77 -16 -85 -16 -8 0 -35 0 -60 0 -25 0 -61 1 -80 3 -50 4 -180
47 -180 59 0 6 -3 8 -6 4 -8 -8 -102 58 -143 102 -151 161 -196 391 -118 606
14 40 48 105 67 128 108 136 243 211 404 226 77 7 178 -2 235 -20z"/>
</g>
</svg>
